<svg xmlns="http://www.w3.org/2000/svg" version="1.1" xmlns:xlink="http://www.w3.org/1999/xlink" xmlns:svgjs="http://svgjs.com/svgjs" width="1440" height="560" preserveAspectRatio="none" viewBox="0 0 1440 560"><g mask="url(&quot;#SvgjsMask1000&quot;)" fill="none"><rect width="1440" height="560" x="0" y="0" fill="rgba(68, 157, 112, 1)"></rect><path d="M226.73 350.46 a110.66 110.66 0 1 0 221.32 0 a110.66 110.66 0 1 0 -221.32 0z" fill="rgba(28, 83, 142, 0.4)" class="triangle-float3"></path><path d="M206.074,503.791C249.805,503.398,290.662,479.521,311.052,440.832C330.243,404.418,321.368,361.165,299.678,326.181C279.271,293.268,244.773,272.975,206.074,271.516C164.439,269.946,121.662,283.417,99.391,318.63C75.686,356.11,75.637,404.324,97.776,442.749C119.949,481.232,161.662,504.19,206.074,503.791" fill="rgba(28, 83, 142, 0.4)" class="triangle-float3"></path><path d="M999.171,291.969C1033.695,290.624,1062.724,268.916,1080.128,239.07C1097.681,208.968,1104.815,171.563,1086.76,141.759C1069.207,112.784,1033.047,105.695,999.171,105.434C964.692,105.169,928.21,111.617,909.216,140.394C888.458,171.843,887.27,213.427,906.501,245.832C925.376,277.637,962.215,293.408,999.171,291.969" fill="rgba(28, 83, 142, 0.4)" class="triangle-float3"></path><path d="M-35.14 9 a148.85 148.85 0 1 0 297.7 0 a148.85 148.85 0 1 0 -297.7 0z" fill="rgba(28, 83, 142, 0.4)" class="triangle-float3"></path><path d="M995.776,698.777C1042.59,698.902,1094.554,694.842,1119.324,655.118C1145.127,613.737,1132.652,561.07,1107.811,519.104C1083.505,478.041,1043.491,446.788,995.776,446.395C947.438,445.996,905.006,475.565,880.494,517.229C855.6,559.543,847.05,613.016,873.367,654.46C898.299,693.723,949.266,698.653,995.776,698.777" fill="rgba(28, 83, 142, 0.4)" class="triangle-float3"></path><path d="M1343.4023486264255 261.51220711184624L1245.591734685954 349.5812794791014 1333.6608070532093 447.3918934195728 1431.4714209936806 359.32282105231764z" fill="rgba(28, 83, 142, 0.4)" class="triangle-float2"></path><path d="M599.0534441226489 564.3269418146123L549.9869400348454 448.7335020766597 434.39350029689285 497.8000061644632 483.46000438469633 613.3934459024158z" fill="rgba(28, 83, 142, 0.4)" class="triangle-float2"></path><path d="M821.732,378.486C838.823,379.806,859.091,379.135,867.544,364.222C875.941,349.407,865.142,332.357,856.036,317.967C847.797,304.946,837.14,292.019,821.732,291.823C806.067,291.624,793.209,303.228,785.883,317.075C779.047,329.996,779.357,345.358,786.727,357.982C794.034,370.498,807.282,377.37,821.732,378.486" fill="rgba(28, 83, 142, 0.4)" class="triangle-float3"></path></g><defs><mask id="SvgjsMask1000"><rect width="1440" height="560" fill="#ffffff"></rect></mask><style>
            @keyframes float1 {
                0%{transform: translate(0, 0)}
                50%{transform: translate(-10px, 0)}
                100%{transform: translate(0, 0)}
            }

            .triangle-float1 {
                animation: float1 5s infinite;
            }

            @keyframes float2 {
                0%{transform: translate(0, 0)}
                50%{transform: translate(-5px, -5px)}
                100%{transform: translate(0, 0)}
            }

            .triangle-float2 {
                animation: float2 4s infinite;
            }

            @keyframes float3 {
                0%{transform: translate(0, 0)}
                50%{transform: translate(0, -10px)}
                100%{transform: translate(0, 0)}
            }

            .triangle-float3 {
                animation: float3 6s infinite;
            }
        </style></defs></svg>