<svg width="657" height="657" viewBox="0 0 657 657" fill="none" xmlns="http://www.w3.org/2000/svg">
<g clip-path="url(#clip0_20_2)">
<path d="M657.001 328.528C657.001 393.507 637.731 457.027 601.63 511.054C565.528 565.082 514.216 607.19 454.182 632.054C394.148 656.917 328.089 663.42 264.359 650.739C200.63 638.058 142.092 606.764 96.1486 560.813C50.2053 514.862 18.9205 456.318 6.25048 392.586C-6.41953 328.854 0.094415 262.797 24.9685 202.767C49.8426 142.737 91.9596 91.4321 145.993 55.3397C200.027 19.2473 263.55 -0.0110706 328.529 4.77432e-06C371.669 4.14746e-06 414.387 8.49804 454.242 25.0088C494.098 41.5196 530.311 65.7196 560.813 96.227C591.315 126.734 615.509 162.951 632.013 202.81C648.517 242.669 657.008 285.388 657.001 328.528Z" fill="url(#paint0_linear_20_2)"/>
<path style="mix-blend-mode:screen" opacity="0.4" d="M328.528 0V657C414.909 655.872 497.369 620.766 558.055 559.283C618.741 497.8 652.767 414.888 652.767 328.5C652.767 242.112 618.741 159.2 558.055 97.717C497.369 36.2339 414.909 1.12781 328.528 0V0Z" fill="url(#paint1_linear_20_2)"/>
<path d="M467.846 459.726C460.313 456.013 453.725 450.632 448.583 443.992L326.568 295.378L400.427 218.384C408.714 209.761 415.695 202.911 421.369 197.834C426.122 193.357 431.277 189.326 436.768 185.794C440.944 183.113 445.574 181.215 450.431 180.195C455.708 179.281 461.039 178.72 466.39 178.515V162.388H426.521V178.571C421.169 178.77 415.838 179.331 410.562 180.251C405.688 181.271 401.039 183.168 396.843 185.85C391.367 189.317 386.23 193.292 381.5 197.722C375.901 202.593 369.405 208.921 361.566 217.152L287.595 296.778L408.77 443.992C413.932 450.634 420.539 456.015 428.089 459.726C436.72 463.311 445.957 465.212 455.303 465.326V482.125H495.172V465.326C485.789 465.226 476.512 463.325 467.846 459.726Z" fill="url(#paint2_linear_20_2)"/>
<path d="M244.926 181.651C239.887 182.694 235.315 185.323 231.879 189.154C228.54 193.494 226.449 198.664 225.832 204.105C224.758 212.554 224.291 221.068 224.432 229.583V321.529L264.301 278.692V229.583C264.182 221.123 264.668 212.664 265.757 204.273C266.329 198.83 268.403 193.654 271.748 189.322C275.216 185.502 279.802 182.876 284.851 181.819C292.22 180.276 299.722 179.451 307.25 179.355V162.388H267.549V179.187C259.946 179.271 252.369 180.097 244.926 181.651Z" fill="url(#paint3_linear_20_2)"/>
<path d="M302.77 465.494C296.167 465.378 289.597 464.552 283.171 463.03C278.505 461.952 274.341 459.327 271.356 455.583C268.24 451.161 266.312 446.013 265.757 440.632C264.668 432.241 264.181 423.782 264.301 415.322V362.574L245.15 338.943L224.432 360.558V415.322C224.298 423.781 224.766 432.239 225.831 440.632C226.439 446.001 228.362 451.136 231.431 455.583C234.437 459.331 238.619 461.955 243.302 463.03C250.035 464.644 256.929 465.489 263.853 465.55V482.349H301.594V465.55L302.77 465.494Z" fill="url(#paint4_linear_20_2)"/>
</g>
<defs>
<linearGradient id="paint0_linear_20_2" x1="328.529" y1="44.2928" x2="328.529" y2="1522.47" gradientUnits="userSpaceOnUse">
<stop stop-color="#61D800"/>
<stop offset="1" stop-color="#000015"/>
</linearGradient>
<linearGradient id="paint1_linear_20_2" x1="563.879" y1="66.3552" x2="161.996" y2="845.37" gradientUnits="userSpaceOnUse">
<stop stop-color="#09AF00"/>
<stop offset="1" stop-color="#101128"/>
</linearGradient>
<linearGradient id="paint2_linear_20_2" x1="-175.323" y1="953.218" x2="739.426" y2="38.4692" gradientUnits="userSpaceOnUse">
<stop/>
</linearGradient>
<linearGradient id="paint3_linear_20_2" x1="-4547.32" y1="23067.5" x2="16746.9" y2="11982.5" gradientUnits="userSpaceOnUse">
<stop/>
</linearGradient>
<linearGradient id="paint4_linear_20_2" x1="-2886.5" y1="23547.7" x2="16828.8" y2="12774.7" gradientUnits="userSpaceOnUse">
<stop/>
</linearGradient>
<clipPath id="clip0_20_2">
<rect width="657" height="657" fill="white"/>
</clipPath>
</defs>
</svg>
